<?xml version="1.0" encoding="UTF-8" standalone="no"?>
<!DOCTYPE svg PUBLIC "-//W3C//DTD SVG 1.1//EN"
 "http://www.w3.org/Graphics/SVG/1.1/DTD/svg11.dtd">
<!-- Generated by graphviz version 2.43.0 (0)
 -->
<!-- Title: G Pages: 1 -->
<svg width="514pt" height="374pt"
 viewBox="0.00 0.00 514.31 374.18" xmlns="http://www.w3.org/2000/svg" xmlns:xlink="http://www.w3.org/1999/xlink">
<g id="graph0" class="graph" transform="scale(1 1) rotate(0) translate(4 370.18)">
<title>G</title>
<polygon fill="white" stroke="transparent" points="-4,4 -4,-370.18 510.31,-370.18 510.31,4 -4,4"/>
<!-- S -->
<g id="node1" class="node">
<title>S</title>
<ellipse fill="none" stroke="black" cx="110.15" cy="-250.12" rx="27" ry="18"/>
<text text-anchor="middle" x="110.15" y="-246.42" font-family="Times,serif" font-size="14.00">S</text>
</g>
<!-- W -->
<g id="node2" class="node">
<title>W</title>
<ellipse fill="none" stroke="black" cx="71.46" cy="-318.17" rx="27" ry="18"/>
<text text-anchor="middle" x="71.46" y="-314.47" font-family="Times,serif" font-size="14.00">W</text>
</g>
<!-- S&#45;&#45;W -->
<g id="edge1" class="edge">
<title>S&#45;&#45;W</title>
<path fill="none" stroke="black" d="M100.39,-267.29C94.48,-277.69 86.97,-290.89 81.09,-301.24"/>
<text text-anchor="middle" x="92.24" y="-287.46" font-family="Times,serif" font-size="11.00">0</text>
</g>
<!-- V -->
<g id="node10" class="node">
<title>V</title>
<ellipse fill="none" stroke="black" cx="74.25" cy="-176.21" rx="27" ry="18"/>
<text text-anchor="middle" x="74.25" y="-172.51" font-family="Times,serif" font-size="14.00">V</text>
</g>
<!-- S&#45;&#45;V -->
<g id="edge7" class="edge">
<title>S&#45;&#45;V</title>
<path fill="none" stroke="black" d="M101.83,-232.98C96.07,-221.13 88.43,-205.41 82.66,-193.52"/>
<text text-anchor="middle" x="88.74" y="-216.45" font-family="Times,serif" font-size="11.00">6</text>
</g>
<!-- N -->
<g id="node3" class="node">
<title>N</title>
<ellipse fill="none" stroke="black" cx="27" cy="-75.91" rx="27" ry="18"/>
<text text-anchor="middle" x="27" y="-72.21" font-family="Times,serif" font-size="14.00">N</text>
</g>
<!-- E -->
<g id="node4" class="node">
<title>E</title>
<ellipse fill="none" stroke="black" cx="105.65" cy="-97.79" rx="27" ry="18"/>
<text text-anchor="middle" x="105.65" y="-94.09" font-family="Times,serif" font-size="14.00">E</text>
</g>
<!-- N&#45;&#45;E -->
<g id="edge2" class="edge">
<title>N&#45;&#45;E</title>
<path fill="none" stroke="black" d="M52.32,-82.95C61.39,-85.48 71.61,-88.32 80.65,-90.83"/>
<text text-anchor="middle" x="62.99" y="-90.09" font-family="Times,serif" font-size="11.00">1</text>
</g>
<!-- M -->
<g id="node5" class="node">
<title>M</title>
<ellipse fill="none" stroke="black" cx="357" cy="-267.8" rx="27" ry="18"/>
<text text-anchor="middle" x="357" y="-264.1" font-family="Times,serif" font-size="14.00">M</text>
</g>
<!-- T -->
<g id="node6" class="node">
<title>T</title>
<ellipse fill="none" stroke="black" cx="433.19" cy="-277.34" rx="27" ry="18"/>
<text text-anchor="middle" x="433.19" y="-273.64" font-family="Times,serif" font-size="14.00">T</text>
</g>
<!-- M&#45;&#45;T -->
<g id="edge3" class="edge">
<title>M&#45;&#45;T</title>
<path fill="none" stroke="black" d="M383.65,-271.14C391.03,-272.06 399.04,-273.07 406.43,-273.99"/>
<text text-anchor="middle" x="391.54" y="-275.77" font-family="Times,serif" font-size="11.00">2</text>
</g>
<!-- O -->
<g id="node11" class="node">
<title>O</title>
<ellipse fill="none" stroke="black" cx="462.71" cy="-348.18" rx="27" ry="18"/>
<text text-anchor="middle" x="462.71" y="-344.48" font-family="Times,serif" font-size="14.00">O</text>
</g>
<!-- T&#45;&#45;O -->
<g id="edge8" class="edge">
<title>T&#45;&#45;O</title>
<path fill="none" stroke="black" d="M440.49,-294.85C445,-305.67 450.76,-319.51 455.29,-330.38"/>
<text text-anchor="middle" x="444.39" y="-315.82" font-family="Times,serif" font-size="11.00">7</text>
</g>
<!-- K -->
<g id="node7" class="node">
<title>K</title>
<ellipse fill="none" stroke="black" cx="479.31" cy="-216" rx="27" ry="18"/>
<text text-anchor="middle" x="479.31" y="-212.3" font-family="Times,serif" font-size="14.00">K</text>
</g>
<!-- K&#45;&#45;T -->
<g id="edge4" class="edge">
<title>K&#45;&#45;T</title>
<path fill="none" stroke="black" d="M467.19,-232.12C460.46,-241.06 452.12,-252.16 445.39,-261.12"/>
<text text-anchor="middle" x="458.79" y="-249.82" font-family="Times,serif" font-size="11.00">3</text>
</g>
<!-- G -->
<g id="node8" class="node">
<title>G</title>
<ellipse fill="none" stroke="black" cx="192.35" cy="-99.14" rx="27" ry="18"/>
<text text-anchor="middle" x="192.35" y="-95.44" font-family="Times,serif" font-size="14.00">G</text>
</g>
<!-- G&#45;&#45;E -->
<g id="edge5" class="edge">
<title>G&#45;&#45;E</title>
<path fill="none" stroke="black" d="M164.92,-98.71C154.7,-98.55 143.11,-98.37 132.91,-98.21"/>
<text text-anchor="middle" x="145.41" y="-101.66" font-family="Times,serif" font-size="11.00">4</text>
</g>
<!-- R -->
<g id="node9" class="node">
<title>R</title>
<ellipse fill="none" stroke="black" cx="235.43" cy="-173.28" rx="27" ry="18"/>
<text text-anchor="middle" x="235.43" y="-169.58" font-family="Times,serif" font-size="14.00">R</text>
</g>
<!-- G&#45;&#45;R -->
<g id="edge6" class="edge">
<title>G&#45;&#45;R</title>
<path fill="none" stroke="black" d="M196.44,-117.31C202.1,-129.91 211.58,-146.42 219.92,-158.28"/>
<text text-anchor="middle" x="204.68" y="-141" font-family="Times,serif" font-size="11.00">5</text>
</g>
<!-- G&#45;&#45;R -->
<g id="edge12" class="edge">
<title>G&#45;&#45;R</title>
<path fill="none" stroke="black" d="M207.86,-114.13C216.28,-126.1 225.86,-142.81 231.5,-155.46"/>
<text text-anchor="middle" x="227.68" y="-125.99" font-family="Times,serif" font-size="11.00">11</text>
</g>
<!-- A -->
<g id="node15" class="node">
<title>A</title>
<ellipse fill="none" stroke="black" cx="192.27" cy="-245.44" rx="27" ry="18"/>
<text text-anchor="middle" x="192.27" y="-241.74" font-family="Times,serif" font-size="14.00">A</text>
</g>
<!-- R&#45;&#45;A -->
<g id="edge14" class="edge">
<title>R&#45;&#45;A</title>
<path fill="none" stroke="black" d="M225.42,-190.02C218.5,-201.59 209.32,-216.93 202.38,-228.54"/>
<text text-anchor="middle" x="200.9" y="-212.48" font-family="Times,serif" font-size="11.00">13</text>
</g>
<!-- V&#45;&#45;E -->
<g id="edge16" class="edge">
<title>V&#45;&#45;E</title>
<path fill="none" stroke="black" d="M81.22,-158.81C86.39,-145.9 93.41,-128.37 98.6,-115.42"/>
<text text-anchor="middle" x="78.91" y="-140.31" font-family="Times,serif" font-size="11.00">15</text>
</g>
<!-- Z -->
<g id="node12" class="node">
<title>Z</title>
<ellipse fill="none" stroke="black" cx="313.78" cy="-188.91" rx="27" ry="18"/>
<text text-anchor="middle" x="313.78" y="-185.21" font-family="Times,serif" font-size="14.00">Z</text>
</g>
<!-- Z&#45;&#45;R -->
<g id="edge9" class="edge">
<title>Z&#45;&#45;R</title>
<path fill="none" stroke="black" d="M287.69,-183.71C279.23,-182.02 269.86,-180.15 261.41,-178.46"/>
<text text-anchor="middle" x="271.05" y="-184.28" font-family="Times,serif" font-size="11.00">8</text>
</g>
<!-- H -->
<g id="node13" class="node">
<title>H</title>
<ellipse fill="none" stroke="black" cx="387.8" cy="-200.88" rx="27" ry="18"/>
<text text-anchor="middle" x="387.8" y="-197.18" font-family="Times,serif" font-size="14.00">H</text>
</g>
<!-- Z&#45;&#45;H -->
<g id="edge10" class="edge">
<title>Z&#45;&#45;H</title>
<path fill="none" stroke="black" d="M340.08,-193.16C346.9,-194.26 354.24,-195.45 361.08,-196.56"/>
<text text-anchor="middle" x="347.08" y="-198.06" font-family="Times,serif" font-size="11.00">9</text>
</g>
<!-- U -->
<g id="node14" class="node">
<title>U</title>
<ellipse fill="none" stroke="black" cx="90.04" cy="-18" rx="27" ry="18"/>
<text text-anchor="middle" x="90.04" y="-14.3" font-family="Times,serif" font-size="14.00">U</text>
</g>
<!-- U&#45;&#45;E -->
<g id="edge11" class="edge">
<title>U&#45;&#45;E</title>
<path fill="none" stroke="black" d="M93.58,-36.1C96.14,-49.16 99.57,-66.71 102.13,-79.75"/>
<text text-anchor="middle" x="90.85" y="-61.13" font-family="Times,serif" font-size="11.00">10</text>
</g>
<!-- A&#45;&#45;S -->
<g id="edge13" class="edge">
<title>A&#45;&#45;S</title>
<path fill="none" stroke="black" d="M164.93,-247C155.97,-247.51 146.03,-248.08 137.1,-248.58"/>
<text text-anchor="middle" x="144.01" y="-250.99" font-family="Times,serif" font-size="11.00">12</text>
</g>
<!-- L -->
<g id="node16" class="node">
<title>L</title>
<ellipse fill="none" stroke="black" cx="234.71" cy="-29.57" rx="27" ry="18"/>
<text text-anchor="middle" x="234.71" y="-25.87" font-family="Times,serif" font-size="14.00">L</text>
</g>
<!-- L&#45;&#45;G -->
<g id="edge15" class="edge">
<title>L&#45;&#45;G</title>
<path fill="none" stroke="black" d="M224.46,-46.41C217.8,-57.35 209.15,-71.54 202.51,-82.45"/>
<text text-anchor="middle" x="200.49" y="-67.63" font-family="Times,serif" font-size="11.00">14</text>
</g>
</g>
</svg>
